<svg width="126" height="40" viewBox="0 0 126 40" fill="none" xmlns="http://www.w3.org/2000/svg">
<path fill-rule="evenodd" clip-rule="evenodd" d="M20.6841 40C31.7298 40 40.6841 31.0457 40.6841 20C40.6841 8.95431 31.7298 0 20.6841 0C9.63837 0 0.684082 8.95431 0.684082 20C0.684082 31.0457 9.63837 40 20.6841 40ZM26.9234 9.31684C27.2271 8.23805 26.1802 7.60013 25.2241 8.2813L11.8772 17.7896C10.8403 18.5283 11.0034 20 12.1222 20H15.6368V19.9728H22.4866L16.9053 21.9421L14.4448 30.6832C14.1411 31.762 15.1879 32.3999 16.1441 31.7187L29.491 22.2105C30.5279 21.4718 30.3647 20 29.246 20H23.9162L26.9234 9.31684Z" fill="#434757"/>
<path d="M63.44 27.14C61.8 27.14 60.4533 26.7533 59.4 25.98C58.3467 25.1933 57.78 24.0733 57.7 22.62H61.88C61.92 23.1133 62.0667 23.4733 62.32 23.7C62.5733 23.9267 62.9 24.04 63.3 24.04C63.66 24.04 63.9533 23.9533 64.18 23.78C64.42 23.5933 64.54 23.34 64.54 23.02C64.54 22.6067 64.3467 22.2867 63.96 22.06C63.5733 21.8333 62.9467 21.58 62.08 21.3C61.16 20.9933 60.4133 20.7 59.84 20.42C59.28 20.1267 58.7867 19.7067 58.36 19.16C57.9467 18.6 57.74 17.8733 57.74 16.98C57.74 16.0733 57.9667 15.3 58.42 14.66C58.8733 14.0067 59.5 13.5133 60.3 13.18C61.1 12.8467 62.0067 12.68 63.02 12.68C64.66 12.68 65.9667 13.0667 66.94 13.84C67.9267 14.6 68.4533 15.6733 68.52 17.06H64.26C64.2467 16.6333 64.1133 16.3133 63.86 16.1C63.62 15.8867 63.3067 15.78 62.92 15.78C62.6267 15.78 62.3867 15.8667 62.2 16.04C62.0133 16.2133 61.92 16.46 61.92 16.78C61.92 17.0467 62.02 17.28 62.22 17.48C62.4333 17.6667 62.6933 17.8333 63 17.98C63.3067 18.1133 63.76 18.2867 64.36 18.5C65.2533 18.8067 65.9867 19.1133 66.56 19.42C67.1467 19.7133 67.6467 20.1333 68.06 20.68C68.4867 21.2133 68.7 21.8933 68.7 22.72C68.7 23.56 68.4867 24.3133 68.06 24.98C67.6467 25.6467 67.04 26.1733 66.24 26.56C65.4533 26.9467 64.52 27.14 63.44 27.14ZM81.2423 21.26C81.2423 21.5667 81.2223 21.8733 81.1823 22.18H73.7623C73.8023 22.7933 73.969 23.2533 74.2623 23.56C74.569 23.8533 74.9557 24 75.4223 24C76.0757 24 76.5423 23.7067 76.8223 23.12H81.0023C80.829 23.8933 80.489 24.5867 79.9823 25.2C79.489 25.8 78.8623 26.2733 78.1023 26.62C77.3423 26.9667 76.5023 27.14 75.5823 27.14C74.4757 27.14 73.489 26.9067 72.6223 26.44C71.769 25.9733 71.0957 25.3067 70.6023 24.44C70.1223 23.5733 69.8823 22.5533 69.8823 21.38C69.8823 20.2067 70.1223 19.1933 70.6023 18.34C71.0823 17.4733 71.749 16.8067 72.6023 16.34C73.469 15.8733 74.4623 15.64 75.5823 15.64C76.689 15.64 77.669 15.8667 78.5223 16.32C79.3757 16.7733 80.0423 17.4267 80.5223 18.28C81.0023 19.12 81.2423 20.1133 81.2423 21.26ZM77.2423 20.28C77.2423 19.8 77.0823 19.4267 76.7623 19.16C76.4423 18.88 76.0423 18.74 75.5623 18.74C75.0823 18.74 74.689 18.8733 74.3823 19.14C74.0757 19.3933 73.8757 19.7733 73.7823 20.28H77.2423ZM90.1866 15.68C91.4799 15.68 92.5066 16.1133 93.2666 16.98C94.0266 17.8333 94.4066 18.9933 94.4066 20.46V27H90.4866V20.98C90.4866 20.34 90.3199 19.84 89.9866 19.48C89.6532 19.1067 89.2066 18.92 88.6466 18.92C88.0599 18.92 87.5999 19.1067 87.2666 19.48C86.9332 19.84 86.7666 20.34 86.7666 20.98V27H82.8466V15.78H86.7666V17.38C87.1132 16.8733 87.5799 16.4667 88.1666 16.16C88.7532 15.84 89.4266 15.68 90.1866 15.68ZM103.178 23.66V27H101.478C98.6108 27 97.1775 25.58 97.1775 22.74V19.04H95.7975V15.78H97.1775V13.06H101.118V15.78H103.158V19.04H101.118V22.8C101.118 23.1067 101.184 23.3267 101.317 23.46C101.464 23.5933 101.704 23.66 102.038 23.66H103.178ZM108.895 17.76C109.335 17.12 109.869 16.6133 110.495 16.24C111.122 15.8667 111.795 15.68 112.515 15.68V19.86H111.415C110.562 19.86 109.929 20.0267 109.515 20.36C109.102 20.6933 108.895 21.2733 108.895 22.1V27H104.975V15.78H108.895V17.76ZM126.001 15.78L118.881 32.34H114.621L117.301 26.52L112.701 15.78H117.061L119.421 22.14L121.701 15.78H126.001Z" fill="#121F3E"/>
</svg>
